<svg height="512pt" viewBox="-160 0 512 512" width="512pt" xmlns="http://www.w3.org/2000/svg"><path d="m128.226562 512c-11.902343 0-21.550781-9.648438-21.550781-21.550781v-172.257813c0-11.902344 9.648438-21.550781 21.550781-21.550781 11.902344 0 21.550782 9.648437 21.550782 21.550781v172.257813c0 11.902343-9.648438 21.550781-21.550782 21.550781zm0 0" fill="#55696e"/><path d="m76.203125 512c-11.902344 0-21.550781-9.648438-21.550781-21.550781v-172.257813c0-11.902344 9.648437-21.550781 21.550781-21.550781s21.550781 9.648437 21.550781 21.550781v172.257813c0 11.902343-9.648437 21.550781-21.550781 21.550781zm0 0" fill="#748488"/><path d="m192.96875 188.371094c-.117188-23.316406-19.25-42.285156-42.648438-42.285156-84.808593 0-11.683593 0-96.601562 0-23.320312 0-42.386719 18.96875-42.5 42.285156l-.664062 131.9375c-.050782 9.917968 7.949218 18 17.867187 18.050781h.09375c9.875 0 17.90625-7.980469 17.957031-17.871094l.660156-131.9375c.019532-3.609375 2.972657-6.546875 6.585938-6.546875h.933594v136.1875h95.125v-49.980468l27.273437-3.125c9.070313-1.039063 15.917969-8.714844 15.917969-17.839844zm-35.917969 42.855468-7.273437.832032v-50.054688h.542968c3.691407 0 6.710938 2.9375 6.730469 6.457032zm0 0" fill="#ba6746"/><path d="m192.96875 224.039062v-35.667968c-.117188-23.316406-19.25-42.285156-42.648438-42.285156h-30.28125c.003907.050781.011719.101562.015626.152343.433593 9.75-8.613282 18.054688-18.054688 18.054688-10.125 0-17.617188-8.269531-18.054688-18.054688-.003906-.050781.003907-.101562 0-.152343h-30.226562c-23.320312 0-42.386719 18.96875-42.5 42.285156l-.179688 35.667968h35.917969l.175781-35.488281c.019532-3.609375 2.972657-6.546875 6.585938-6.546875h.933594v136.1875h95.125v-136.1875h.542968c3.691407 0 6.710938 2.9375 6.730469 6.457032v35.578124zm0 0" fill="#ffda52"/><path d="m139.238281 97.003906c0 20.554688-16.664062 37.21875-37.21875 37.21875-20.558593 0-37.222656-16.664062-37.222656-37.21875 0-20.558594 16.664063-37.222656 37.222656-37.222656 20.554688 0 37.21875 16.664062 37.21875 37.222656zm0 0" fill="#ba6746"/><path d="m139.238281 16.21875c-4.910156 0-9.476562 1.445312-13.328125 3.90625-2.195312-11.460938-12.261718-20.125-24.363281-20.125-11.917969 0-21.867187 8.410156-24.261719 19.617188-3.671875-2.144532-7.929687-3.398438-12.488281-3.398438-13.707031 0-24.816406 11.113281-24.816406 24.820312 0 13.707032 11.113281 24.816407 24.816406 24.816407v16.890625h74.441406v-16.890625c13.707031 0 24.820313-11.109375 24.820313-24.816407 0-13.707031-11.113282-24.820312-24.820313-24.820312zm0 0" fill="#c8e6eb"/><path d="m113.546875 247.261719-58.332031 13.554687v-84.359375l52.875-12.289062c2.789062-.648438 5.457031 1.472656 5.457031 4.335937zm0 0" fill="#b4d7dc"/><path d="m4.3125 242.476562 50.902344 18.339844v-84.359375l-49.253906-17.746093c-2.902344-1.046876-5.960938 1.105468-5.960938 4.1875v73.441406c0 2.75 1.726562 5.203125 4.3125 6.136718zm0 0" fill="#87afb9"/><path d="m79.589844 258.167969c-1.128906-9.851563 5.945312-18.753907 15.800781-19.882813l77.574219-8.882812c9.851562-1.125 18.757812 5.945312 19.886718 15.800781 1.128907 9.851563-5.949218 18.757813-15.800781 19.882813l-77.574219 8.882812c-9.828124 1.125-18.753906-5.917969-19.886718-15.800781zm0 0" fill="#ba6746"/></svg>