<?xml version="1.0" encoding="iso-8859-1"?>
<!-- Generator: Adobe Illustrator 19.0.0, SVG Export Plug-In . SVG Version: 6.00 Build 0)  -->
<svg version="1.1" id="Capa_1" xmlns="http://www.w3.org/2000/svg" xmlns:xlink="http://www.w3.org/1999/xlink" x="0px" y="0px"
	 viewBox="0 0 512 512" style="enable-background:new 0 0 512 512;" xml:space="preserve">
<g>
	<path style="fill:#86A9BF;" d="M382.34,229.895c1.951-1.375,4.031-2.596,6.24-3.619c0.8-0.37,1.722-0.37,2.522,0
		c2.208,1.023,4.288,2.243,6.238,3.617V105.91c0-0.757-0.115-1.487-0.323-2.177c-4.979,1.17-9.877,2.394-14.677,3.682v9.85
		c-86.453,24.445-144.984,66.6-180.389,100.012c4.657,2.561,7.841,7.46,7.989,13.105c33.318-32.01,89.156-73.185,172.4-97.526
		L382.34,229.895L382.34,229.895z"/>
	<path style="fill:#86A9BF;" d="M84.346,401.551l38.803-43.563c1.034-1.161,1.642-2.555,1.833-3.988h-18.368l-32.311,36.275
		l-32.312-36.276H23.849c0.146,1.531,0.755,3.033,1.857,4.27l38.552,43.282l-45.806,51.427c-2.755,3.093-2.481,7.834,0.612,10.589
		c1.43,1.273,3.21,1.899,4.986,1.899c2.065,0,4.121-0.849,5.603-2.512l44.649-50.127l44.899,50.408
		c1.482,1.664,3.538,2.512,5.603,2.512c1.775,0,3.557-0.626,4.986-1.899c3.093-2.755,3.367-7.496,0.612-10.589L84.346,401.551z"/>
</g>
<path style="fill:#3A5792;" d="M150.205,265.434c-1.288,0-2.592-0.332-3.784-1.029c-3.574-2.094-4.774-6.689-2.681-10.263
	c0.784-1.338,19.695-33.197,62.932-69.8c39.702-33.609,108.364-77.662,210.009-96.662c4.078-0.76,7.99,1.923,8.75,5.994
	c0.761,4.071-1.923,7.989-5.995,8.75c-98.418,18.397-164.754,60.928-203.073,93.366c-41.3,34.964-59.502,65.628-59.681,65.934
	C155.288,264.106,152.78,265.434,150.205,265.434z"/>
<path style="fill:#FFB98A;" d="M15.466,132.596c3.234,24.267,23.999,42.991,49.15,42.991c27.394,0,49.602-22.208,49.602-49.602
	c0-6.676-1.328-13.04-3.719-18.854L15.466,132.596z"/>
<path style="fill:#F07C3C;" d="M15.456,132.599c2.12,15.906,11.777,29.427,25.264,36.857v-43.627L15.456,132.599z"/>
<path style="fill:#0481BF;" d="M174.683,345.111v65.888h32.576V307.105c0-5.666-4.636-10.303-10.302-10.303H102.44v38.006h61.941
	C170.047,334.809,174.683,339.445,174.683,345.111z"/>
<path style="fill:#F07C3C;" d="M216.896,433.172c-2.833,0-5.151-2.317-5.151-5.15v-15.94c0-2.834-2.318-5.151-5.151-5.151h-33.133
	c-2.833,0-5.151,2.317-5.151,5.151v48.516c0,2.833,2.318,5.15,5.151,5.15h66.613c2.833,0,5.151-2.317,5.151-5.15v-22.274
	c0-2.833-2.318-5.151-5.151-5.151h-23.178V433.172z"/>
<path style="fill:#3A5792;" d="M152.966,347.825v63.174h32.576V301.676c0-5.666-4.636-10.301-10.302-10.301h-72.8v46.148h40.224
	C148.33,337.523,152.966,342.159,152.966,347.825z"/>
<path style="fill:#0481BF;" d="M105.705,337.562V205.448c0-22.488-18.231-40.719-40.72-40.719s-40.72,18.23-40.72,40.719v132.114
	H105.705z"/>
<path style="opacity:0.1;fill:#210035;enable-background:new    ;" d="M75.774,166.184c-3.437-0.942-7.052-1.455-10.789-1.455
	c-22.489,0-40.72,18.23-40.72,40.719v132.114h21.578V205.448C45.843,186.696,58.523,170.915,75.774,166.184z"/>
<path style="fill:#5E9900;" d="M16.573,240.092C7.435,240.092,0,232.657,0,223.518v-42.216c0-9.14,7.435-16.573,16.573-16.573
	h47.674l-30.006,16.215c-0.688,0.513-1.094,1.32-1.094,2.179v40.395C33.147,232.657,25.712,240.092,16.573,240.092z"/>
<path style="opacity:0.1;fill:#210035;enable-background:new    ;" d="M14.938,223.518v-42.216c0-9.14,7.435-16.573,16.574-16.573
	H16.573C7.435,164.729,0,172.163,0,181.303v42.216c0,9.139,7.435,16.573,16.573,16.573c2.689,0,5.222-0.658,7.469-1.799
	C18.65,235.557,14.938,229.969,14.938,223.518z"/>
<path style="fill:#EF5050;" d="M132.34,351.756c0,2.833-2.318,5.15-5.151,5.15H21.666c-2.833,0-5.151-2.317-5.151-5.15v-9.606
	c0-2.832,2.318-5.15,5.151-5.15H127.19c2.833,0,5.151,2.318,5.151,5.15v9.606H132.34z"/>
<path style="fill:#0481BF;" d="M10.594,115.277l96.338-25.813l-3.695-13.789C96.11,49.072,68.765,33.284,42.162,40.413
	S-0.228,74.886,6.9,101.489L10.594,115.277z"/>
<path style="opacity:0.1;fill:#210035;enable-background:new    ;" d="M10.594,115.277l30.243-8.104l-1.523-5.685
	c-6.831-25.489,7.385-51.648,31.988-60.062c-9.081-3.136-19.163-3.687-29.141-1.013C15.559,47.542-0.228,74.886,6.9,101.489
	L10.594,115.277z"/>
<path style="fill:#3A5792;" d="M119.018,103.485c0.733,2.737-0.906,5.576-3.643,6.309L13.447,137.105
	c-2.736,0.732-5.576-0.905-6.309-3.642l-3.892-14.525c-0.733-2.736,0.906-5.575,3.642-6.308l101.929-27.311
	c2.736-0.732,5.576,0.905,6.309,3.642L119.018,103.485z"/>
<ellipse style="fill:#A2E8F9;" cx="389.84" cy="436.199" rx="122.16" ry="37.1"/>
<path id="SVGCleanerId_0" style="fill:#02BFE9;" d="M273.954,447.959c16.197,14.724,61.958,25.338,115.886,25.338
	s99.69-10.614,115.887-25.338c-16.196-14.724-61.958-25.336-115.887-25.336C335.912,422.623,290.15,433.235,273.954,447.959z"/>
<g>
	<path id="SVGCleanerId_0_1_" style="fill:#02BFE9;" d="M273.954,447.959c16.197,14.724,61.958,25.338,115.886,25.338
		s99.69-10.614,115.887-25.338c-16.196-14.724-61.958-25.336-115.887-25.336C335.912,422.623,290.15,433.235,273.954,447.959z"/>
</g>
<path style="opacity:0.1;fill:#210035;enable-background:new    ;" d="M411.051,458.109c-50.903,0-94.517-9.458-112.872-22.902
	c-10.672,3.677-18.997,7.998-24.226,12.752c16.197,14.724,61.958,25.338,115.886,25.338s99.69-10.614,115.887-25.338
	c-0.909-0.825-1.923-1.636-3.013-2.435C480.329,453.238,447.57,458.109,411.051,458.109z"/>
<path style="fill:#5E9900;" d="M151.878,249.788h-15.835c-0.703,0-1.384,0.084-2.042,0.23v31.211c0.658,0.147,1.34,0.23,2.042,0.23
	h15.835c5.168,0,9.357-4.189,9.357-9.357v-12.957C161.235,253.977,157.046,249.788,151.878,249.788z"/>
<path style="fill:#FFC554;" d="M136.871,249.494H83.125v-45c0-8.968-7.265-16.237-16.226-16.237s-16.226,7.27-16.226,16.237v51.96
	c0,14.068,11.438,25.516,25.497,25.516h60.7L136.871,249.494L136.871,249.494z"/>
<g style="opacity:0.1;">
	<path style="fill:#1B003F;" d="M67.477,257.234v-51.96c0-6.154,3.422-11.508,8.466-14.262c-2.585-1.74-5.695-2.756-9.044-2.756
		c-8.961,0-16.226,7.27-16.226,16.237v51.96c0,14.068,11.438,25.516,25.497,25.516h10.543
		C75.671,279.169,67.477,269.142,67.477,257.234z"/>
</g>
<circle style="fill:#86A9BF;" cx="194.55" cy="230.789" r="20.409"/>
<path style="fill:#3A5792;" d="M207.677,267.761h-10.036c-5.839,0-10.59-4.751-10.59-10.591v-23.151c0-4.143,3.358-7.5,7.5-7.5
	s7.5,3.357,7.5,7.5v18.742h5.626c4.142,0,7.5,3.357,7.5,7.5C215.177,264.403,211.819,267.761,207.677,267.761z"/>
<path style="fill:#B3CCE2;" d="M398.658,292.176c9.869-7.564,15.91-19.434,15.91-32.145c0-15.697-9.212-30.112-23.466-36.721
	c-0.8-0.37-1.722-0.37-2.522,0c-14.255,6.608-23.467,21.023-23.467,36.721c0,12.711,6.042,24.58,15.91,32.145
	c-9.183,7.235-14.789,18.411-14.789,30.372c0,0.878,0.032,1.787,0.097,2.703c0.08,1.177,0.875,2.182,1.999,2.533
	c1.125,0.352,2.351-0.021,3.088-0.941c4.511-5.628,11.227-8.856,18.423-8.856s13.912,3.228,18.424,8.856
	c0.738,0.92,1.963,1.293,3.088,0.941s1.918-1.357,1.999-2.533c0.064-0.916,0.096-1.825,0.096-2.703
	C413.447,310.587,407.84,299.41,398.658,292.176z"/>
<path style="fill:#86A9BF;" d="M413.089,249.262c-3.137-11.27-11.083-20.895-21.988-25.951c-0.8-0.37-1.722-0.37-2.522,0
	c-10.905,5.056-18.852,14.681-21.987,25.951H413.089z"/>
<path style="fill:#02BFE9;" d="M383.743,352.095c-4.142,0-7.5-3.357-7.5-7.5v-1.03c0-4.142,3.358-7.5,7.5-7.5s7.5,3.358,7.5,7.5
	v1.03C391.243,348.737,387.885,352.095,383.743,352.095z"/>
<path style="fill:#0481BF;" d="M397.135,370.638c-4.142,0-7.5-3.357-7.5-7.5v-1.03c0-4.143,3.358-7.5,7.5-7.5s7.5,3.357,7.5,7.5
	v1.03C404.635,367.28,401.277,370.638,397.135,370.638z"/>
<path style="fill:#02BFE9;" d="M381.682,387.12c-4.142,0-7.5-3.357-7.5-7.5v-1.029c0-4.143,3.358-7.5,7.5-7.5s7.5,3.357,7.5,7.5
	v1.029C389.182,383.763,385.824,387.12,381.682,387.12z"/>
<path style="fill:#A53C29;" d="M195.179,433.172c-2.833,0-5.151-2.317-5.151-5.15v-15.94c0-2.834-2.318-5.151-5.151-5.151h-33.133
	c-2.833,0-5.151,2.317-5.151,5.151v48.516c0,2.833,2.318,5.15,5.151,5.15h66.613c2.833,0,5.151-2.317,5.151-5.15v-22.274
	c0-2.833-2.318-5.151-5.151-5.151h-23.178V433.172z"/>
<path style="opacity:0.1;fill:#210035;enable-background:new    ;" d="M162,460.597v-48.516c0-2.834,2.318-5.151,5.151-5.151
	h-15.406c-2.833,0-5.151,2.317-5.151,5.151v48.516c0,2.833,2.318,5.15,5.151,5.15h15.406C164.318,465.747,162,463.43,162,460.597z"
	/>
<g>
</g>
<g>
</g>
<g>
</g>
<g>
</g>
<g>
</g>
<g>
</g>
<g>
</g>
<g>
</g>
<g>
</g>
<g>
</g>
<g>
</g>
<g>
</g>
<g>
</g>
<g>
</g>
<g>
</g>
</svg>
