<svg height="587pt" viewBox="0 0 587 587.85166" width="587pt" xmlns="http://www.w3.org/2000/svg"><path d="m122.804688 332.171875v229.128906l-28.988282 9.660157c-4.578125 1.527343-7.054687 6.476562-5.527344 11.058593 1.527344 4.582031 6.480469 7.054688 11.058594 5.53125l34.960938-11.65625c3.570312-1.191406 5.976562-4.53125 5.976562-8.292969v-235.429687zm0 0" fill="#ffcb63"/><path d="m210.21875 332.171875v229.128906l28.984375 9.660157c4.582031 1.527343 7.054687 6.476562 5.53125 11.058593-1.527344 4.582031-6.480469 7.054688-11.058594 5.53125l-34.960937-11.65625c-3.570313-1.191406-5.976563-4.53125-5.976563-8.292969v-235.429687zm0 0" fill="#ffa754"/><path d="m493.207031 163.171875h-50.617187v17.480469h50.617187c4.828125 0 8.742188-3.914063 8.742188-8.738282 0-4.828124-3.910157-8.742187-8.742188-8.742187zm0 0" fill="#7dd9ff"/><path d="m26.648438 206.878906c-4.820313 0-8.738282-3.921875-8.738282-8.742187 0-4.820313 3.917969-8.742188 8.738282-8.742188h17.484374c4.828126 0 8.742188-3.914062 8.742188-8.738281 0-4.828125-3.914062-8.742188-8.742188-8.742188h-17.484374c-14.460938 0-26.222657 11.761719-26.222657 26.222657 0 14.460937 11.765625 26.222656 26.222657 26.222656h139.863281v-17.480469zm0 0" fill="#ff6337"/><path d="m218.957031 206.878906h-52.445312v17.480469h52.445312c53.023438 0 96.15625 43.136719 96.15625 96.15625 0 4.828125 3.914063 8.742187 8.742188 8.742187s8.738281-3.914062 8.738281-8.742187c.003906-62.660156-50.976562-113.636719-113.636719-113.636719zm0 0" fill="#ff4128"/><path d="m79.097656 145.6875h-52.449218v-34.964844l26.226562-34.964844 26.222656 34.964844zm0 0" fill="#ff4128"/><path d="m26.648438 40.792969h52.449218v69.929687h-52.449218zm0 0" fill="#a8e5ff"/><path d="m413.453125 93.242188v34.964843l-41.957031 69.929688h-27.972656c-4.832032 0-8.742188 3.914062-8.742188 8.742187s3.914062 8.742188 8.742188 8.742188h69.929687l104.894531-87.414063zm0 0" fill="#a8e5ff"/><path d="m308.703125 0 31.964844 58.277344 5.828125 34.964844-72.902344-34.964844.144531-58.277344zm0 0" fill="#116f97"/><path d="m588.28125 128.207031h-34.96875l-69.929688-69.929687h34.96875c38.613282 0 69.929688 31.3125 69.929688 69.929687zm0 0" fill="#a8e5ff"/><path d="m483.382812 58.277344h-209.792968c0 38.460937 31.46875 69.929687 69.933594 69.929687h209.789062c.003906-38.617187-31.3125-69.929687-69.929688-69.929687zm0 0" fill="#dbf4ff"/><g fill="#2dade3"><path d="m527.089844 93.242188c0 4.824218-3.914063 8.738281-8.742188 8.738281-4.824218 0-8.738281-3.914063-8.738281-8.738281 0-4.828126 3.914063-8.742188 8.738281-8.742188 4.828125 0 8.742188 3.914062 8.742188 8.742188zm0 0"/><path d="m492.125 93.242188c0 4.824218-3.914062 8.738281-8.742188 8.738281-4.824218 0-8.738281-3.914063-8.738281-8.738281 0-4.828126 3.914063-8.742188 8.738281-8.742188 4.828126 0 8.742188 3.914062 8.742188 8.742188zm0 0"/><path d="m457.160156 93.242188c0 4.824218-3.914062 8.738281-8.742187 8.738281s-8.742188-3.914063-8.742188-8.738281c0-4.828126 3.914063-8.742188 8.742188-8.742188s8.742187 3.914062 8.742187 8.742188zm0 0"/><path d="m422.195312 93.242188c0 4.824218-3.914062 8.738281-8.742187 8.738281s-8.742187-3.914063-8.742187-8.738281c0-4.828126 3.914062-8.742188 8.742187-8.742188s8.742187 3.914062 8.742187 8.742188zm0 0"/><path d="m387.230469 93.242188c0 4.824218-3.914063 8.738281-8.742188 8.738281s-8.742187-3.914063-8.742187-8.738281c0-4.828126 3.914062-8.742188 8.742187-8.742188s8.742188 3.914062 8.742188 8.742188zm0 0"/><path d="m352.261719 93.242188c0 4.824218-3.910157 8.738281-8.738281 8.738281-4.828126 0-8.742188-3.914063-8.742188-8.738281 0-4.828126 3.914062-8.742188 8.742188-8.742188 4.828124 0 8.738281 3.914062 8.738281 8.742188zm0 0"/></g><path d="m195.648438 192.308594h-34.964844v139.863281h58.273437v-116.550781c0-12.882813-10.429687-23.3125-23.308593-23.3125zm0 0" fill="#ff4128"/><path d="m160.683594 192.308594h-23.308594c-12.882812 0-23.3125 10.433594-23.3125 23.3125v116.550781h69.929688v-116.550781c0-12.882813-10.429688-23.3125-23.308594-23.3125zm0 0" fill="#ff6337"/><path d="m114.0625 297.203125c-10.871094 12.328125-17.484375 28.503906-17.484375 46.230469 0 2.53125.136719 5.03125.398437 7.496094l17.085938 156.066406h34.964844v-157.34375h69.929687l-34.964843-52.449219zm0 0" fill="#7dd9ff"/><path d="m218.957031 297.203125h-34.964843v209.792969h34.964843l17.085938-156.066406c.261719-2.464844.398437-4.960938.398437-7.496094 0-17.726563-6.609375-33.902344-17.484375-46.230469zm0 0" fill="#49c9ff"/><path d="m242.269531 174.828125c-12.875 0-23.3125-10.4375-23.3125-23.3125v-46.621094c25.75 0 46.621094 20.875 46.621094 46.621094 0 12.875-10.4375 23.3125-23.308594 23.3125zm0 0" fill="#85453d"/><path d="m182.933594 86.886719-16.425782 70.457031c28.96875 0 52.449219-23.480469 52.449219-52.449219zm0 0" fill="#ffa754"/><path d="m183.992188 104.894531c0-6.324219-.375-12.390625-1.058594-18.007812l-47.894532-23.945313c-12.738281 9.566406-20.976562 24.796875-20.976562 41.953125 0 28.96875 23.480469 52.449219 52.445312 52.449219 9.660157 0 17.484376-23.480469 17.484376-52.449219zm0 0" fill="#ffcb63"/><path d="m166.507812 52.449219 17.367188 46.421875c10.972656 3.894531 22.777344 6.023437 35.082031 6.023437 0-28.964843-23.480469-52.445312-52.449219-52.445312zm0 0" fill="#60312c"/><path d="m166.507812 52.449219c-11.808593 0-22.703124 3.902343-31.46875 10.492187 12.273438 16.339844 29.214844 28.96875 48.835938 35.933594-.996094-26.128906-8.386719-46.425781-17.367188-46.425781zm0 0" fill="#85453d"/></svg>